<?xml version="1.0" standalone="no"?>
<!DOCTYPE svg PUBLIC "-//W3C//DTD SVG 20010904//EN"
 "http://www.w3.org/TR/2001/REC-SVG-20010904/DTD/svg10.dtd">
<svg version="1.0" xmlns="http://www.w3.org/2000/svg"
 width="1455.000000pt" height="1455.000000pt" viewBox="0 0 1455.000000 1455.000000"
 preserveAspectRatio="xMidYMid meet">

<g transform="translate(0.000000,1455.000000) scale(0.100000,-0.100000)"
fill="#000000" stroke="none">
<path d="M0 7275 l0 -7275 7275 0 7275 0 0 7275 0 7275 -7275 0 -7275 0 0
-7275z m7594 6491 c105 -15 200 -30 210 -33 15 -4 -11 -34 -134 -152 l-152
-146 35 -205 c19 -113 34 -207 32 -209 -2 -1 -87 40 -189 93 l-186 97 -180
-96 c-99 -52 -183 -95 -188 -95 -5 0 6 82 24 183 18 100 33 193 34 207 0 19
-35 60 -147 172 -97 97 -142 149 -132 152 13 4 375 56 391 56 5 0 51 87 104
192 l97 193 95 -191 95 -191 191 -27z m-3018 -494 l90 -188 195 -28 c107 -15
201 -30 210 -32 12 -3 -25 -46 -134 -153 l-150 -148 35 -207 c23 -132 31 -206
24 -204 -6 2 -91 45 -188 96 l-178 93 -182 -96 c-100 -52 -185 -95 -189 -95
-3 0 10 93 29 206 l36 207 -151 148 c-109 107 -146 150 -134 153 9 2 103 17
210 32 l195 28 90 188 c50 103 93 188 96 188 3 0 47 -85 96 -188z m5508 0 l94
-188 206 -29 c113 -16 206 -33 206 -36 0 -4 -67 -72 -149 -151 l-149 -143 35
-203 c20 -112 33 -205 31 -207 -2 -3 -78 34 -168 81 -89 47 -173 90 -185 96
-18 8 -50 -5 -204 -87 -101 -53 -185 -94 -187 -92 -3 2 12 96 32 208 l35 204
-152 147 c-84 81 -151 149 -148 151 2 2 96 17 209 33 l205 29 95 187 c52 104
96 188 97 188 2 0 45 -85 97 -188z m-7587 -1912 c22 -1 406 -60 410 -63 2 -3
-64 -70 -148 -150 l-151 -145 36 -208 c19 -114 35 -209 33 -210 -1 -1 -86 42
-188 96 l-187 99 -188 -99 c-103 -55 -188 -99 -189 -97 -1 1 15 96 35 210 l36
208 -154 150 c-84 82 -152 149 -149 149 9 0 351 50 385 56 32 6 38 15 129 198
l96 191 93 -192 c51 -106 97 -193 101 -193z m9713 191 l93 -188 196 -27 c108
-15 203 -30 211 -33 10 -3 -32 -50 -138 -151 l-152 -147 35 -204 c20 -112 34
-206 31 -208 -2 -3 -86 38 -186 91 -101 53 -184 96 -186 96 -3 0 -86 -43 -185
-96 -99 -53 -183 -93 -186 -91 -2 3 11 96 30 208 l35 202 -150 145 c-82 80
-145 148 -141 152 4 4 96 19 203 34 107 15 197 29 201 32 4 2 48 87 97 189 50
102 92 185 95 185 2 0 45 -85 97 -189z m-4935 -297 l39 -72 -27 -35 -27 -36
32 6 c36 5 88 -26 88 -53 0 -25 -39 -54 -71 -54 l-31 0 36 -40 c44 -49 45 -64
6 -100 -23 -21 -31 -41 -39 -92 -15 -91 -39 -155 -113 -298 -71 -138 -102
-251 -96 -350 l3 -55 60 102 c33 57 63 103 68 103 4 0 13 -11 19 -25 6 -14 14
-25 18 -25 22 0 52 253 44 380 -6 106 4 88 51 -95 43 -169 68 -346 63 -460
l-3 -90 361 -602 361 -603 541 597 c298 328 542 600 542 604 0 3 -14 12 -30
19 -33 14 -70 54 -70 76 0 18 36 54 55 54 8 0 30 -14 50 -31 l35 -31 0 44 0
44 107 37 c58 21 108 36 109 34 2 -2 -8 -53 -24 -113 -26 -107 -28 -109 -57
-112 -38 -4 -54 -19 -31 -28 9 -3 24 -20 32 -36 14 -27 14 -32 -1 -54 -9 -15
-25 -24 -40 -24 -25 0 -25 -1 -10 -30 22 -42 19 -67 -13 -90 l-28 -21 13 -97
c46 -364 66 -770 61 -1209 -3 -255 -1 -360 6 -354 6 4 135 95 286 201 151 106
289 203 307 216 l31 24 -40 40 c-36 35 -40 44 -35 75 4 23 -1 47 -14 74 -19
39 -44 139 -37 146 2 2 39 -5 83 -15 44 -10 80 -18 81 -17 0 1 5 31 11 67 l11
65 -42 74 c-47 84 -66 95 -193 104 -77 6 -103 16 -143 52 -14 13 -49 39 -78
58 -56 37 -94 81 -118 135 -7 19 -28 48 -46 64 l-33 31 75 -6 c41 -4 86 -10
99 -14 21 -5 23 -4 17 13 -26 61 -34 166 -16 194 8 12 13 13 30 3 30 -19 34
-16 16 12 -29 44 -17 39 18 -7 22 -28 50 -52 76 -62 22 -9 42 -16 44 -16 2 0
9 27 16 60 7 33 14 60 16 60 2 0 32 -30 66 -66 44 -46 71 -85 89 -130 15 -35
35 -76 44 -90 31 -48 34 -80 19 -187 l-15 -102 47 -82 c26 -45 57 -86 69 -91
11 -5 55 -37 98 -71 78 -62 87 -68 87 -52 0 5 16 44 36 87 l36 79 12 -37 c7
-20 34 -72 60 -117 89 -150 96 -333 17 -405 -32 -29 -62 -136 -50 -179 5 -19
20 -98 33 -176 23 -132 36 -183 36 -134 0 18 38 79 134 214 17 25 47 69 65 98
18 30 36 50 41 45 15 -16 90 -201 90 -223 0 -26 16 -27 30 -1 14 26 97 83 104
71 4 -5 11 -68 17 -139 13 -153 5 -197 -61 -336 -49 -102 -73 -123 -217 -192
-51 -24 -110 -60 -131 -79 l-39 -35 -6 -122 c-6 -111 -29 -284 -43 -332 -4
-12 -2 -16 5 -12 6 4 18 33 26 64 16 60 53 142 64 142 4 0 27 19 51 42 25 23
72 54 105 69 65 30 97 58 116 104 12 27 14 15 20 -114 5 -86 4 -153 -2 -169
-5 -13 -8 -27 -5 -29 2 -2 35 11 72 30 38 19 81 37 97 41 35 8 35 0 1 -152
-33 -147 -64 -207 -164 -314 -90 -97 -101 -103 -292 -154 -134 -35 -191 -59
-220 -91 -10 -11 -34 -78 -53 -149 -20 -71 -38 -138 -42 -148 -5 -17 -1 -16
26 6 21 18 56 32 108 43 43 9 133 29 200 45 67 17 126 30 129 30 4 0 -2 -10
-13 -22 -26 -29 -35 -47 -66 -134 l-25 -70 113 0 c63 0 116 -2 120 -5 3 -4
-26 -37 -66 -75 -82 -79 -116 -126 -148 -204 -38 -95 -107 -192 -201 -285
l-90 -90 -168 -5 c-207 -7 -215 -10 -343 -144 l-94 -99 50 27 c28 15 65 40 82
56 18 17 35 30 39 30 10 0 -5 -84 -27 -147 l-19 -56 39 6 c22 3 54 12 72 21
44 22 55 9 40 -50 -19 -74 -44 -114 -120 -189 -39 -38 -71 -72 -71 -76 0 -12
199 -42 251 -37 l53 5 -39 -33 c-22 -18 -67 -48 -100 -65 -33 -18 -86 -56
-117 -85 -53 -48 -70 -57 -185 -94 -163 -53 -211 -58 -299 -32 -38 11 -86 23
-107 26 -21 4 -81 27 -135 51 -53 24 -118 49 -143 56 -44 12 -46 11 -120 -32
-41 -24 -130 -73 -198 -110 l-124 -67 79 -18 c43 -10 118 -18 166 -19 49 0 88
-4 88 -9 0 -11 -44 -71 -82 -112 -27 -29 -28 -32 -11 -39 10 -3 71 -9 136 -12
72 -4 117 -10 117 -16 0 -17 -113 -122 -166 -155 l-48 -30 40 -10 c21 -6 54
-13 72 -17 17 -4 32 -10 32 -15 0 -13 -130 -97 -193 -124 -49 -22 -66 -24
-198 -23 -79 1 -200 -5 -267 -12 -68 -7 -141 -11 -162 -7 -21 3 -96 29 -167
56 -117 46 -134 56 -193 114 -100 98 -96 96 -239 96 l-125 0 49 -31 c27 -17
100 -49 163 -70 62 -22 131 -51 152 -64 78 -49 376 -302 367 -311 -2 -2 -56 1
-122 6 -135 11 -139 14 -203 112 -28 44 -50 65 -93 88 -31 16 -60 30 -63 30
-4 0 1 -15 11 -32 13 -24 18 -56 18 -118 0 -72 -4 -92 -27 -135 -14 -28 -35
-61 -47 -75 l-21 -25 6 33 c8 38 -13 122 -30 122 -6 0 -20 -6 -31 -13 -11 -8
-33 -22 -49 -32 l-29 -19 18 35 c10 19 20 65 23 105 4 62 1 80 -21 128 -28 62
-112 151 -162 172 -27 11 -32 10 -53 -9 -31 -29 -88 -28 -128 0 l-31 22 -47
-30 c-138 -92 -195 -245 -138 -372 l21 -48 -37 22 c-20 12 -41 26 -47 31 -31
27 -61 -35 -52 -106 l6 -41 -25 30 c-72 88 -95 220 -55 310 12 26 21 49 21 51
0 3 -31 -11 -68 -30 -50 -25 -76 -46 -97 -78 -77 -114 -79 -116 -153 -122 -37
-4 -94 -9 -127 -12 l-60 -5 35 36 c55 58 207 187 292 248 62 44 103 64 205 98
70 23 146 54 170 69 l43 28 -122 4 c-72 3 -131 1 -143 -5 -11 -5 -56 -44 -101
-86 -76 -72 -87 -78 -208 -125 -70 -26 -145 -50 -166 -53 -21 -3 -92 0 -157 7
-65 7 -188 13 -273 14 l-155 1 -79 43 c-44 24 -97 57 -119 75 l-40 31 69 18
c38 9 73 17 78 17 5 1 -17 18 -50 39 -32 22 -84 65 -114 98 l-55 59 121 6 c66
4 130 10 143 14 23 7 23 8 -16 49 -42 43 -73 85 -73 98 0 5 29 8 64 8 35 0
108 9 161 20 53 11 100 20 104 20 3 0 -48 29 -114 64 -66 35 -156 85 -200 111
-79 46 -81 47 -128 36 -26 -6 -91 -31 -146 -56 -54 -25 -124 -50 -155 -56 -31
-5 -75 -17 -98 -25 -61 -21 -104 -17 -237 21 -147 42 -172 54 -237 115 -28 26
-75 59 -105 74 -30 14 -74 43 -99 65 l-45 39 52 -5 c59 -6 243 24 243 39 0 5
-36 47 -79 92 -64 67 -82 93 -95 136 -22 73 -21 104 2 95 53 -23 90 -34 113
-35 l26 0 -23 68 c-13 37 -24 82 -24 101 l0 34 22 -20 c32 -28 131 -93 143
-93 5 0 -17 26 -51 58 -33 31 -77 76 -97 100 -59 67 -109 82 -276 82 -76 0
-151 5 -167 10 -39 14 -201 190 -245 265 -19 33 -45 85 -58 115 -31 73 -86
146 -162 211 l-61 54 53 8 c30 4 84 5 122 2 45 -4 67 -3 67 5 0 22 -62 169
-82 195 -20 26 -20 27 -2 22 50 -15 149 -38 249 -58 107 -21 154 -37 186 -65
12 -11 6 21 -23 128 -41 148 -61 183 -119 213 -14 8 -95 32 -180 55 -84 22
-166 49 -181 59 -41 25 -171 175 -202 231 -24 45 -76 251 -76 304 0 25 0 25
45 11 25 -7 57 -21 71 -29 13 -9 36 -21 50 -26 25 -10 25 -9 19 20 -4 17 -4
95 0 172 l8 142 24 -47 c20 -41 34 -52 101 -86 42 -22 102 -64 133 -93 52 -48
59 -61 83 -140 15 -48 32 -90 38 -94 8 -5 9 -1 4 12 -16 40 -46 283 -46 368
l0 89 -38 34 c-20 18 -85 58 -143 87 -137 70 -162 93 -209 186 -63 125 -74
176 -67 310 4 64 9 130 13 147 6 31 7 32 33 19 14 -8 42 -30 62 -51 l37 -36 7
28 c10 41 89 223 97 223 3 0 27 -35 53 -79 26 -43 60 -91 76 -107 16 -15 29
-33 29 -41 0 -7 14 -28 30 -47 17 -19 36 -51 44 -73 l13 -38 7 50 c4 28 18
112 32 187 25 131 25 138 10 192 -9 31 -30 71 -47 90 -16 19 -34 50 -40 68
-23 82 0 222 52 309 18 30 44 80 59 111 l28 58 37 -85 c21 -47 41 -85 45 -85
4 0 17 11 29 24 13 14 56 48 97 77 61 44 81 66 118 129 l44 76 -15 89 c-17
109 -13 149 21 203 14 23 36 68 48 100 15 39 40 76 81 119 33 34 63 61 67 58
3 -2 12 -29 19 -60 7 -30 14 -55 17 -55 2 0 22 7 44 16 27 11 51 32 71 60 31
46 54 63 25 19 -22 -33 -20 -37 9 -23 14 6 28 8 31 5 10 -10 6 -138 -6 -176
-5 -19 -8 -36 -6 -38 2 -2 23 1 47 6 24 6 66 11 92 11 l49 0 -29 -24 c-16 -13
-42 -50 -58 -81 -15 -31 -44 -70 -64 -86 -75 -60 -185 -139 -195 -140 -34 -2
-166 -19 -192 -24 -26 -6 -38 -20 -73 -81 l-43 -75 12 -68 13 -68 81 18 c44
10 82 16 84 15 7 -7 -30 -132 -48 -162 -11 -19 -16 -42 -13 -58 7 -35 -14 -74
-50 -96 l-28 -17 322 -227 c178 -124 323 -225 324 -223 1 1 -3 103 -9 227 -15
349 11 917 60 1320 10 83 11 126 5 128 -6 2 -20 11 -32 21 -23 18 -22 23 6 94
5 13 2 17 -13 17 -55 0 -68 64 -22 103 31 27 25 37 -25 37 -26 0 -23 -6 -59
136 -26 100 -30 98 92 56 l107 -37 5 -45 c3 -30 7 -39 12 -28 4 9 21 24 38 33
29 15 34 15 56 0 15 -9 24 -25 24 -41 0 -28 -41 -71 -77 -80 -13 -4 -23 -10
-21 -14 2 -4 242 -270 533 -591 292 -320 535 -589 541 -597 8 -11 78 98 323
508 l313 522 -17 107 c-43 260 12 588 145 878 38 82 39 84 22 113 -17 29 -17
29 23 70 l39 40 -29 0 c-35 0 -65 25 -65 55 0 32 26 50 71 50 22 0 39 2 39 4
0 3 -12 17 -26 32 l-26 27 57 102 57 102 17 -29 c10 -15 35 -60 56 -99z
m-2391 -1477 c37 -27 13 -97 -33 -97 -22 0 -51 30 -51 53 0 25 28 57 50 57 9
0 24 -6 34 -13z m4706 -7 c11 -11 20 -27 20 -35 0 -20 -36 -55 -57 -55 -23 0
-53 29 -53 52 0 22 34 58 55 58 8 0 24 -9 35 -20z m-8295 -868 c2 -2 94 -17
206 -33 111 -16 204 -31 206 -32 1 -2 -64 -71 -147 -153 l-149 -149 34 -195
c19 -107 35 -201 35 -208 0 -12 -78 26 -305 149 l-70 37 -185 -98 c-107 -57
-186 -93 -188 -87 -1 7 13 100 32 207 l35 195 -149 149 c-83 82 -148 151 -147
153 2 1 82 14 178 28 96 13 188 27 204 30 28 5 37 19 125 195 l95 190 93 -187
c52 -104 96 -189 97 -191z m12132 184 c82 -164 95 -185 120 -190 35 -7 368
-56 385 -56 7 -1 -56 -68 -141 -149 l-155 -149 36 -208 c19 -115 34 -210 33
-211 0 -2 -82 40 -181 92 -98 52 -186 95 -194 95 -8 0 -96 -43 -194 -95 -99
-52 -181 -93 -182 -92 -1 1 14 96 34 210 l36 208 -153 146 c-83 80 -151 147
-149 148 2 2 84 15 183 29 99 15 193 29 208 32 25 5 38 26 120 190 50 101 94
184 97 184 3 0 47 -83 97 -184z m-9095 147 c26 -23 23 -59 -7 -79 -23 -15 -27
-15 -50 0 -25 16 -29 26 -25 56 2 18 28 40 49 40 8 0 23 -7 33 -17z m5810 0
c26 -23 23 -59 -7 -79 -23 -15 -27 -15 -50 0 -25 16 -29 26 -25 56 2 18 28 40
49 40 8 0 23 -7 33 -17z m-5534 -219 c12 -8 22 -24 22 -35 0 -23 -34 -59 -55
-59 -19 0 -55 36 -55 55 0 18 35 55 53 55 7 0 23 -7 35 -16z m5254 -1 c24 -21
23 -55 -3 -79 -19 -17 -23 -17 -47 -3 -36 20 -41 61 -10 83 28 20 37 20 60 -1z
m-5984 -705 c22 -22 14 -67 -13 -80 -37 -17 -75 3 -75 40 0 35 16 52 50 52 14
0 31 -5 38 -12z m6736 -20 c21 -61 -62 -93 -93 -36 -14 24 -14 28 4 48 28 31
77 24 89 -12z m-6858 -953 c20 -20 23 -29 14 -45 -26 -49 -83 -45 -96 7 -5 20
-2 31 16 45 29 24 36 23 66 -7z m6958 12 c20 -15 25 -62 8 -79 -17 -17 -64
-12 -79 8 -18 25 -16 41 7 64 23 23 39 25 64 7z m2756 -1117 c51 -102 93 -186
95 -188 2 -2 94 -17 206 -33 111 -16 204 -31 207 -33 2 -3 -64 -71 -146 -153
l-151 -148 35 -190 c18 -104 33 -198 31 -207 -2 -13 -40 4 -187 82 l-185 98
-30 -17 c-80 -48 -345 -181 -345 -174 0 4 16 98 35 208 l35 200 -152 153 c-84
83 -147 152 -141 152 11 0 310 43 378 55 28 5 37 19 125 195 52 104 95 188 96
187 2 -1 44 -85 94 -187z m-12176 -207 c1 -2 81 -14 177 -28 96 -13 189 -27
208 -31 l34 -6 -151 -151 -151 -152 35 -195 c19 -107 33 -200 32 -206 -2 -6
-86 33 -188 87 l-185 98 -135 -71 c-74 -39 -159 -84 -187 -100 -36 -20 -53
-25 -53 -16 0 7 15 101 34 208 l35 195 -151 152 -151 151 34 6 c28 5 377 56
383 56 1 0 44 86 96 190 l95 190 93 -187 c52 -104 95 -189 96 -190z m2720 265
c18 -52 -44 -89 -86 -51 -21 18 -23 36 -7 64 8 16 19 19 47 17 30 -2 38 -8 46
-30z m6482 11 c17 -19 17 -23 3 -47 -27 -50 -109 -37 -109 16 0 16 5 33 12 40
19 19 73 14 94 -9z m-6105 -1059 c29 -16 25 -65 -6 -86 -23 -15 -27 -15 -50 0
-29 19 -33 56 -9 80 18 19 38 20 65 6z m5695 -15 c19 -30 11 -62 -21 -77 -49
-22 -96 42 -60 82 25 27 61 25 81 -5z m-4678 -847 c19 -19 14 -55 -9 -72 -43
-30 -93 20 -63 63 17 23 53 28 72 9z m3660 0 c19 -19 14 -55 -9 -71 -25 -18
-56 -11 -70 15 -23 42 45 90 79 56z m-6514 -815 c1 -1 94 -16 206 -33 112 -17
205 -32 207 -34 2 -1 -64 -70 -146 -152 l-149 -149 34 -190 c18 -104 33 -198
33 -208 1 -16 -8 -13 -61 16 -35 19 -119 64 -188 100 l-125 65 -185 -98 c-102
-54 -186 -95 -188 -92 -1 4 14 97 33 207 l34 200 -152 153 c-83 83 -149 152
-145 152 8 0 344 48 383 55 28 5 37 19 125 195 l95 190 93 -187 c52 -104 95
-189 96 -190z m9656 195 c50 -100 94 -185 98 -189 4 -4 90 -19 192 -34 102
-14 193 -29 203 -33 14 -6 -11 -35 -131 -155 l-149 -148 35 -200 c19 -110 32
-202 29 -205 -3 -3 -87 37 -187 90 l-182 97 -189 -99 c-104 -55 -189 -97 -189
-93 0 3 16 98 36 211 l35 205 -153 146 c-141 135 -151 147 -128 153 28 6 370
56 386 56 5 0 52 86 104 190 52 105 96 190 98 190 1 0 43 -82 92 -182z m-7523
-1920 c16 -6 372 -58 398 -58 5 0 -59 -69 -143 -153 l-152 -152 36 -204 c19
-112 34 -205 32 -207 -2 -1 -87 41 -189 95 l-187 97 -183 -97 c-147 -78 -184
-94 -186 -81 -2 9 13 103 32 207 l34 190 -151 147 c-83 82 -149 150 -147 152
2 2 85 16 184 30 99 15 191 29 205 32 22 4 40 33 120 195 l95 191 92 -189 c55
-111 99 -191 110 -195z m5410 188 c88 -176 94 -185 125 -191 33 -5 374 -55
386 -55 4 -1 -63 -68 -148 -149 l-154 -148 36 -209 c20 -115 35 -210 34 -211
-1 -1 -86 42 -189 96 l-187 98 -187 -98 c-103 -54 -188 -97 -189 -96 -1 1 14
96 34 211 l36 209 -154 148 c-85 81 -152 148 -148 149 12 0 353 50 386 55 31
6 37 15 125 191 50 101 94 184 97 184 3 0 47 -83 97 -184z m-2788 -604 l94
-188 206 -29 c113 -16 207 -29 208 -30 2 -1 -65 -69 -148 -152 l-152 -150 36
-204 c19 -112 34 -206 32 -207 -2 -2 -86 40 -187 93 l-183 97 -187 -96 c-102
-53 -188 -96 -190 -96 -3 0 11 92 31 205 l35 206 -149 149 c-82 82 -147 151
-145 153 3 2 97 17 210 33 l204 29 90 188 c50 103 93 187 96 187 3 0 48 -85
99 -188z"/>
<path d="M7180 11215 l-22 -36 23 -25 23 -25 18 23 c22 29 22 37 -1 71 l-18
29 -23 -37z"/>
<path d="M7063 11079 c-6 -6 -9 -18 -6 -25 6 -16 80 -19 103 -4 13 9 12 12 -4
25 -23 18 -77 20 -93 4z"/>
<path d="M7250 11079 c-25 -10 -25 -11 -5 -25 12 -9 36 -14 60 -12 32 2 40 7
40 23 0 16 -7 20 -35 22 -19 1 -46 -2 -60 -8z"/>
<path d="M5040 10074 c10 -43 9 -41 40 -45 27 -4 30 -1 30 35 0 18 -8 27 -31
35 -46 16 -48 15 -39 -25z"/>
<path d="M9318 10098 c-23 -8 -28 -16 -28 -44 0 -32 2 -34 28 -28 35 8 39 12
47 52 7 35 1 38 -47 20z"/>
<path d="M5206 10049 c-27 -31 -34 -59 -16 -59 20 0 69 30 78 48 25 48 -24 57
-62 11z"/>
<path d="M9134 10065 c-8 -19 11 -42 47 -61 36 -18 39 -18 39 4 0 20 -49 72
-68 72 -7 0 -15 -7 -18 -15z"/>
<path d="M7133 9882 c-34 -59 -73 -125 -87 -147 l-24 -40 179 0 c98 0 178 3
176 6 -11 28 -171 289 -176 289 -3 0 -34 -49 -68 -108z"/>
<path d="M5089 9937 c-40 -26 -52 -67 -21 -67 22 0 72 53 72 76 0 20 -12 18
-51 -9z"/>
<path d="M9265 9951 c-9 -15 40 -76 63 -79 29 -4 39 23 17 48 -20 22 -72 42
-80 31z"/>
<path d="M7028 9631 c-26 -4 -49 -9 -51 -11 -19 -26 -38 -63 -34 -67 3 -2 39
1 81 7 76 13 360 8 420 -6 l28 -7 -25 39 c-21 34 -30 40 -73 46 -62 8 -284 7
-346 -1z"/>
<path d="M7135 9513 c-64 -4 -227 -32 -241 -41 -5 -4 -21 -25 -34 -46 -22 -36
-22 -39 -4 -32 10 4 57 17 104 29 71 18 113 21 250 21 143 -1 177 -4 258 -25
50 -14 92 -24 92 -22 0 2 -11 20 -24 41 -20 33 -32 40 -77 50 -52 12 -243 33
-264 30 -5 -1 -32 -3 -60 -5z"/>
<path d="M7056 9380 c-70 -11 -187 -43 -236 -64 -32 -13 -90 -107 -670 -1077
-349 -584 -636 -1066 -638 -1070 -2 -5 54 -9 125 -9 98 0 134 4 150 15 12 8
59 66 106 128 182 243 350 354 484 318 22 -6 74 -36 114 -66 41 -30 118 -77
171 -103 86 -42 99 -46 115 -34 43 33 120 62 166 62 54 0 88 -15 163 -72 28
-21 56 -38 63 -38 8 0 11 93 9 372 l-3 372 -42 8 c-51 8 -79 23 -92 46 -14 27
22 148 56 185 26 28 26 29 3 14 -37 -26 -66 -22 -79 11 -15 37 -3 70 39 105
57 49 131 49 183 0 59 -55 142 -288 114 -321 -16 -20 -70 -42 -102 -42 l-25 0
0 -371 c0 -204 3 -369 8 -367 62 32 91 40 143 36 49 -4 66 -11 115 -48 32 -24
96 -63 141 -86 l83 -42 69 35 c88 45 133 42 212 -18 30 -22 70 -49 90 -59 l36
-19 59 30 c74 38 116 35 189 -15 l52 -36 235 2 235 3 -641 1071 -641 1072 -60
21 c-33 11 -89 28 -125 36 -80 19 -294 27 -374 15z m83 -447 c13 -68 14 -83 2
-83 -5 0 -13 21 -18 48 l-10 47 -8 -53 c-4 -29 -12 -55 -16 -58 -5 -3 -17 9
-27 26 -9 17 -23 39 -30 48 -12 15 -13 15 -8 -3 15 -62 17 -85 8 -85 -6 0 -17
30 -26 67 -20 89 -4 103 39 33 17 -27 33 -50 38 -50 4 0 7 20 7 44 0 93 31
105 49 19z m140 39 c5 -10 6 -24 1 -32 -5 -8 -3 -21 3 -32 20 -30 -3 -53 -57
-56 l-46 -3 0 70 0 71 45 0 c32 0 47 -5 54 -18z m131 -16 c25 -11 42 -66 21
-66 -6 0 -11 -18 -11 -41 0 -28 -4 -39 -12 -36 -8 2 -12 15 -10 30 3 21 -2 29
-23 37 -32 12 -45 6 -45 -21 0 -10 -4 -19 -10 -19 -14 0 -13 14 6 82 18 63 20
64 84 34z m-494 -48 c-35 -18 -46 -40 -26 -53 5 -3 23 1 39 10 34 17 41 18 41
7 0 -5 -16 -16 -35 -25 -31 -15 -34 -19 -23 -36 12 -19 12 -19 50 0 21 11 38
15 38 9 0 -8 -70 -50 -84 -50 -6 0 -66 107 -66 118 0 11 83 51 94 44 5 -3 -7
-13 -28 -24z m637 -13 c20 -10 37 -25 37 -33 0 -10 -9 -8 -36 9 -32 19 -37 20
-51 7 -13 -14 -10 -18 23 -39 42 -26 31 -38 -14 -15 -22 11 -32 12 -41 3 -17
-17 -14 -23 25 -46 20 -12 34 -24 31 -27 -6 -6 -83 31 -90 43 -5 10 62 125 71
121 4 -2 24 -12 45 -23z m-704 -92 c43 -55 47 -63 31 -63 -10 0 -90 101 -90
114 0 16 19 -1 59 -51z m-96 -5 c-17 -19 -16 -20 25 -55 23 -19 42 -42 42 -51
0 -11 -15 -1 -45 28 -40 39 -48 43 -65 32 -34 -21 -33 -14 5 33 21 25 42 42
47 39 5 -3 1 -15 -9 -26z m420 -95 c3 -40 2 -73 -2 -73 -9 0 -21 83 -21 140 1
60 17 12 23 -67z m37 12 c0 -50 -4 -85 -10 -85 -6 0 -10 35 -10 85 0 50 4 85
10 85 6 0 10 -35 10 -85z m43 18 c-9 -94 -21 -134 -22 -72 -1 62 10 139 20
139 5 0 5 -30 2 -67z m-129 -12 c18 -79 20 -110 7 -95 -4 5 -14 38 -20 73 -7
34 -15 69 -18 77 -3 8 -1 14 5 14 6 0 18 -31 26 -69z m183 52 c-3 -10 -11 -48
-17 -85 -7 -38 -17 -68 -22 -68 -5 0 -7 14 -3 33 21 106 29 137 37 137 5 0 7
-8 5 -17z m407 -14 c29 -35 31 -41 14 -72 -17 -33 -39 -46 -75 -47 -24 0 -37
7 -54 31 l-22 32 49 43 c27 24 52 43 56 44 3 0 18 -14 32 -31z m-635 -44 c28
-75 37 -113 22 -100 -15 15 -62 155 -51 155 5 0 18 -25 29 -55z m253 -25 c-14
-44 -30 -80 -35 -80 -11 0 -4 31 24 105 32 85 40 65 11 -25z m-275 -38 c13
-30 19 -52 13 -50 -13 4 -80 145 -72 153 7 6 23 -22 59 -103z m312 18 c-17
-38 -36 -70 -40 -70 -9 0 -3 17 36 105 15 33 30 54 32 48 3 -7 -10 -44 -28
-83z m39 -13 c-49 -85 -47 -82 -54 -75 -8 9 76 159 86 153 5 -3 -10 -38 -32
-78z m-399 3 c22 -36 37 -69 34 -73 -3 -5 -13 4 -22 20 -57 93 -73 125 -63
122 7 -2 30 -33 51 -69z m-43 -15 c49 -60 58 -75 46 -75 -13 0 -112 127 -105
134 4 4 10 3 13 -1 3 -5 24 -30 46 -58z m473 -15 c-29 -39 -55 -66 -57 -60 -5
15 96 145 106 135 3 -2 -19 -36 -49 -75z m-735 47 c8 -13 7 -24 -6 -47 -16
-29 -16 -30 10 -49 50 -36 15 -32 -44 5 -33 20 -60 38 -62 39 -2 1 7 19 19 39
17 29 27 36 47 34 14 -2 30 -11 36 -21z m286 -132 c0 -5 -29 19 -65 55 -35 35
-61 68 -58 73 6 11 122 -110 123 -128z m483 60 c-31 -35 -61 -61 -66 -58 -10
6 104 131 116 125 4 -2 -19 -32 -50 -67z m337 15 c21 -42 25 -60 12 -60 -4 0
-14 16 -21 35 -13 37 -18 40 -41 25 -12 -8 -12 -13 3 -44 20 -43 4 -49 -18 -6
-17 32 -22 35 -43 21 -12 -7 -11 -14 2 -39 18 -34 20 -52 8 -52 -8 0 -55 90
-50 95 3 3 122 64 125 65 2 0 12 -18 23 -40z m-900 -40 c36 -32 61 -59 55 -59
-11 -1 -128 96 -133 110 -8 21 18 5 78 -51z m648 51 c-7 -18 -119 -113 -125
-107 -4 4 20 31 52 61 56 51 81 66 73 46z m-683 -78 c56 -40 78 -63 60 -63 -9
0 -130 92 -133 101 -6 16 7 9 73 -38z m715 39 c0 -12 -131 -104 -138 -97 -3 3
3 12 14 19 10 8 39 30 64 49 46 37 60 43 60 29z m-1000 -26 c0 -8 -5 -27 -10
-42 -8 -21 -8 -29 2 -36 21 -13 26 -10 38 27 6 19 16 35 22 35 6 0 7 -8 3 -17
-16 -40 -17 -55 -4 -64 23 -14 28 -11 40 31 13 43 35 57 25 15 -13 -50 -26
-75 -39 -75 -12 0 -49 11 -114 35 -8 3 -7 17 5 54 15 49 32 68 32 37z m335
-96 c-6 -10 -155 69 -155 81 0 6 36 -9 80 -32 43 -23 77 -46 75 -49z m695 82
c0 -5 -10 -14 -22 -20 -13 -6 -47 -25 -75 -42 -29 -17 -53 -26 -53 -21 0 10
127 90 143 91 4 0 7 -4 7 -8z m14 -51 c-17 -17 -143 -69 -149 -63 -4 4 29 23
72 43 73 34 99 41 77 20z m-799 -22 c41 -18 75 -36 75 -40 0 -5 -1 -9 -3 -9
-8 0 -158 67 -164 73 -14 15 21 5 92 -24z m-13 -39 c58 -18 97 -40 71 -40 -23
0 -163 53 -163 62 0 5 6 7 13 4 6 -2 42 -14 79 -26z m838 22 c0 -5 -30 -19
-67 -32 -38 -13 -74 -25 -80 -28 -7 -2 -13 0 -13 6 0 6 33 22 73 35 82 29 87
30 87 19z m194 -41 c22 -24 16 -27 -61 -36 -76 -8 -87 9 -12 19 39 5 49 10 45
21 -8 21 8 19 28 -4z m-1284 -7 c0 -3 -7 -12 -15 -21 -19 -19 -16 -47 6 -51
10 -2 21 11 32 38 24 61 77 51 77 -15 0 -17 -5 -36 -12 -43 -15 -15 -38 -16
-38 -2 0 6 6 10 14 10 18 0 29 31 20 54 -10 26 -36 14 -48 -22 -15 -44 -36
-56 -64 -36 -24 16 -28 44 -12 75 10 17 40 27 40 13z m238 -11 c45 -9 82 -21
82 -26 0 -5 -10 -7 -22 -4 -13 3 -51 11 -86 18 -34 6 -65 16 -68 20 -7 12 -1
12 94 -8z m857 8 c-6 -5 -35 -14 -65 -20 -30 -7 -65 -14 -77 -17 -13 -4 -23
-2 -23 4 0 5 30 16 68 25 80 18 110 21 97 8z m-790 -62 c14 -6 7 -8 -26 -8
-60 -1 -139 10 -139 19 0 9 138 0 165 -11z m805 11 c0 -5 -11 -10 -24 -10 -12
0 -51 -3 -85 -6 -41 -5 -61 -3 -61 4 0 6 25 13 58 15 31 2 69 4 85 5 15 1 27
-2 27 -8z m149 -35 c11 3 26 -1 35 -10 19 -19 20 -29 6 -54 -14 -27 -116 -27
-130 -1 -14 27 -13 37 10 60 16 16 24 18 41 10 11 -6 28 -8 38 -5z m-949 -15
c0 -6 -35 -10 -84 -10 -47 0 -88 5 -91 10 -4 6 27 10 84 10 54 0 91 -4 91 -10z
m797 3 c-7 -7 -159 -4 -166 3 -2 2 35 4 84 4 49 0 85 -3 82 -7z m-793 -32 c3
-5 -18 -12 -46 -15 -29 -4 -70 -9 -90 -12 -23 -4 -38 -2 -38 4 0 6 30 13 68
17 37 4 72 8 77 10 18 6 24 5 29 -4z m781 -12 c16 -6 13 -8 -15 -8 -56 -1
-140 11 -140 20 0 10 125 0 155 -12z m2 -53 c11 -11 -37 -6 -102 10 -36 9 -63
20 -60 24 5 8 151 -23 162 -34z m-782 26 c-6 -5 -37 -14 -70 -21 -33 -7 -68
-15 -77 -17 -10 -3 -18 -1 -18 4 0 6 28 17 63 25 72 17 115 21 102 9z m-210
-32 c12 -13 15 -27 11 -45 -9 -36 -24 -31 -22 8 1 26 -3 33 -22 35 -27 4 -40
-23 -24 -49 17 -27 16 -29 -28 -29 -25 0 -40 5 -40 13 0 6 -3 22 -6 35 -4 12
-2 22 4 22 5 0 13 -11 16 -25 8 -32 35 -34 29 -2 -5 27 19 57 46 57 10 0 26
-9 36 -20z m1081 12 c7 -4 19 -24 27 -44 11 -27 22 -38 36 -38 22 0 30 33 11
45 -20 12 -10 26 10 15 22 -12 27 -49 8 -68 -7 -7 -23 -12 -35 -12 -19 0 -28
10 -45 48 l-21 47 -9 -37 c-6 -21 -14 -38 -19 -38 -11 0 -11 6 2 53 10 38 15
42 35 29z m-856 -11 c0 -10 -158 -56 -166 -48 -5 5 130 55 154 56 6 1 12 -3
12 -8z m676 -11 c87 -30 87 -30 81 -36 -6 -6 -167 44 -167 52 0 9 29 3 86 -16z
m-666 -19 c0 -11 -149 -76 -157 -68 -3 4 27 22 68 41 81 38 89 40 89 27z m658
-23 c39 -17 72 -35 72 -40 0 -4 -2 -8 -4 -8 -11 0 -156 69 -156 74 0 11 14 6
88 -26z m-642 -7 c-10 -15 -138 -82 -150 -78 -6 2 23 22 64 45 75 42 96 50 86
33z m620 -26 c57 -32 86 -55 69 -55 -11 0 -134 71 -141 81 -10 16 8 10 72 -26z
m-596 1 c0 -7 -201 -147 -219 -153 -28 -10 4 18 102 89 81 58 117 78 117 64z
m620 -70 c56 -41 97 -76 93 -79 -4 -3 -51 26 -103 64 -108 80 -119 89 -102 89
6 0 57 -33 112 -74z m-854 35 c-3 -4 -24 -14 -46 -21 -33 -11 -40 -18 -36 -32
3 -12 0 -17 -7 -14 -7 3 -20 9 -29 12 -29 10 -21 17 44 46 58 24 85 28 74 9z
m953 -191 c144 -131 180 -168 151 -158 -17 6 -390 350 -390 360 0 12 39 -21
239 -202z m-699 196 c0 -10 -402 -357 -411 -354 -5 2 81 83 192 181 178 156
219 189 219 173z m789 -40 c9 -7 17 -5 27 9 10 14 14 15 14 4 0 -8 3 -24 6
-37 7 -23 6 -23 -59 9 -36 18 -64 36 -61 40 5 8 48 -7 73 -25z m-790 -14 c-14
-15 -70 -76 -124 -137 -54 -60 -104 -116 -111 -124 -8 -8 -16 -12 -20 -8 -3 3
55 74 131 157 76 83 140 148 143 145 3 -3 -6 -18 -19 -33z m578 -108 c71 -80
130 -151 132 -156 8 -24 -20 2 -90 82 -164 188 -191 220 -180 220 6 0 68 -66
138 -146z m-527 121 c0 -9 -302 -390 -312 -394 -20 -7 -3 17 147 208 132 167
165 205 165 186z m524 -191 c81 -107 145 -198 142 -201 -3 -4 -8 -4 -10 -2
-18 21 -296 391 -296 395 0 20 37 -22 164 -192z m-494 170 c0 -14 -213 -354
-221 -354 -6 0 0 17 13 39 147 245 194 321 201 321 4 0 7 -3 7 -6z m418 -170
c57 -97 101 -178 98 -182 -3 -3 -8 -3 -10 -1 -7 8 -206 350 -206 354 0 23 30
-20 118 -171z m-38 -41 c113 -246 104 -223 92 -223 -5 0 -51 91 -102 202 -108
238 -105 228 -93 228 4 0 51 -93 103 -207z m-350 193 c0 -15 -202 -418 -207
-413 -7 8 187 417 199 417 4 0 8 -2 8 -4z m264 -121 c36 -110 44 -148 27 -129
-10 11 -81 223 -81 244 0 31 19 -9 54 -115z m-253 38 c-15 -43 -36 -102 -45
-131 -10 -28 -21 -50 -25 -47 -6 3 27 112 74 243 2 6 9 12 14 12 6 0 -2 -35
-18 -77z m234 -152 c39 -171 46 -216 31 -200 -7 7 -96 396 -95 416 1 37 19
-22 64 -216z m-178 207 c-2 -7 -26 -103 -52 -213 -26 -110 -49 -202 -51 -204
-2 -2 -7 -2 -10 1 -9 9 97 428 108 428 6 0 8 -6 5 -12z"/>
<path d="M7207 8964 c-17 -17 -5 -34 24 -34 24 0 30 4 27 18 -3 17 -38 29 -51
16z"/>
<path d="M7200 8891 c0 -17 6 -21 31 -21 24 0 30 4 27 18 -2 10 -14 18 -31 20
-22 3 -27 -1 -27 -17z"/>
<path d="M7356 8934 c-11 -28 44 -49 60 -23 8 13 -3 24 -32 33 -15 5 -24 1
-28 -10z"/>
<path d="M7646 8729 c-35 -30 -36 -33 -20 -50 22 -24 46 -24 67 -1 20 22 21
41 3 65 -13 17 -16 16 -50 -14z"/>
<path d="M6642 8660 c-7 -12 -10 -25 -7 -30 10 -17 34 -11 45 10 21 38 -15 56
-38 20z"/>
<path d="M7754 8295 c-4 -9 -2 -21 4 -27 15 -15 44 -1 40 19 -4 23 -36 29 -44
8z"/>
<path d="M7822 8283 c2 -10 10 -18 18 -18 8 0 16 8 18 18 2 12 -3 17 -18 17
-15 0 -20 -5 -18 -17z"/>
<path d="M5666 9348 c-38 -212 -54 -759 -27 -963 19 -147 55 -308 91 -407 18
-49 33 -88 35 -88 1 0 71 114 154 253 l151 253 -16 45 c-32 90 -45 187 -51
383 l-6 199 -155 171 c-85 94 -158 175 -162 179 -4 5 -10 -6 -14 -25z"/>
<path d="M8570 9202 l-165 -183 -1 -167 c-2 -170 -18 -305 -51 -409 l-16 -52
151 -252 151 -253 20 47 c20 47 50 144 70 228 49 210 65 615 36 934 -9 105
-20 212 -24 240 l-6 49 -165 -182z"/>
<path d="M4422 8567 c-32 -33 -41 -57 -21 -57 16 0 69 56 69 74 0 24 -13 19
-48 -17z"/>
<path d="M9940 8582 c0 -20 49 -72 68 -72 20 0 14 17 -19 55 -35 39 -49 44
-49 17z"/>
<path d="M4306 8431 c-30 -31 -32 -64 -4 -69 11 -2 25 9 38 30 39 65 16 92
-34 39z"/>
<path d="M10040 8455 c0 -2 7 -23 16 -44 17 -42 50 -63 65 -40 10 16 -15 65
-40 79 -21 11 -41 13 -41 5z"/>
<path d="M10150 8372 c0 -21 -33 -43 -55 -38 -22 6 -23 3 -21 -47 1 -46 -2
-53 -23 -62 -23 -10 -23 -12 -17 -105 20 -278 13 -709 -14 -970 -43 -411 -152
-822 -276 -1035 -22 -39 -22 -41 -5 -64 l18 -23 45 58 c25 33 50 68 56 79 11
19 11 19 12 -5 0 -14 9 -44 20 -68 10 -23 22 -59 26 -80 l7 -37 9 30 c5 17 4
50 -2 78 -13 62 -13 140 1 230 10 66 29 115 29 75 0 -9 19 -38 41 -64 23 -27
50 -69 61 -94 11 -25 33 -67 50 -93 17 -26 36 -64 43 -84 l13 -37 46 141 c41
128 45 146 39 206 -3 36 -8 69 -12 74 -3 4 -25 21 -48 36 -31 19 -43 34 -43
51 0 13 -14 50 -31 82 -33 63 -79 225 -79 280 0 53 15 83 40 77 19 -5 20 -3
13 23 -16 59 -4 315 15 314 12 -1 196 -185 235 -236 21 -27 45 -74 54 -104
l17 -55 17 95 c23 119 34 272 25 333 -7 43 -10 47 -44 57 -20 5 -53 20 -72 32
-19 13 -60 36 -90 53 -50 27 -59 37 -98 115 -56 110 -72 174 -72 284 l0 90 53
-52 53 -53 12 78 c7 43 12 90 12 106 0 15 4 27 9 27 26 0 101 -87 146 -169 28
-50 53 -91 56 -91 11 0 -47 347 -72 427 -7 23 -22 37 -53 52 -23 12 -48 21
-54 21 -7 0 -30 16 -52 36 -22 20 -40 32 -40 26z m85 -162 c15 -16 17 -26 9
-47 -17 -49 -87 -48 -100 2 -13 53 54 86 91 45z m75 -860 c11 -11 20 -27 20
-35 0 -21 -36 -55 -59 -55 -20 0 -51 35 -51 57 0 18 37 53 55 53 8 0 24 -9 35
-20z m-154 -955 c30 -46 -17 -101 -64 -76 -46 25 -29 101 23 101 15 0 31 -10
41 -25z"/>
<path d="M4212 8341 c-19 -16 -46 -31 -60 -35 -15 -3 -41 -14 -59 -25 -26 -17
-33 -30 -47 -88 -16 -72 -50 -267 -60 -343 -6 -42 -5 -44 10 -25 8 11 31 50
51 87 32 61 119 158 141 158 5 0 13 -48 18 -106 l9 -107 51 47 c58 51 64 48
64 -27 0 -92 -21 -173 -70 -275 -44 -92 -54 -105 -87 -118 -21 -9 -51 -26 -68
-39 -43 -32 -91 -55 -115 -55 -13 0 -24 -10 -31 -27 -15 -38 -5 -256 16 -366
l17 -89 18 52 c10 29 27 64 39 79 12 14 29 39 39 56 20 34 41 56 137 142 48
44 72 60 80 52 6 -6 10 -72 10 -169 0 -151 1 -159 19 -157 24 2 38 -49 30
-103 -14 -86 -47 -197 -75 -248 -16 -30 -29 -64 -29 -76 0 -30 -12 -45 -56
-70 -36 -20 -39 -25 -49 -89 -11 -68 -11 -70 35 -213 42 -129 60 -163 60 -114
0 9 19 46 41 81 23 35 48 82 56 104 7 22 27 53 42 70 16 16 38 45 49 63 19 32
20 32 25 10 22 -88 28 -204 16 -278 -9 -59 -10 -85 -1 -102 11 -23 11 -23 11
5 1 15 8 44 17 65 9 20 20 55 23 76 l6 40 27 -41 c15 -23 42 -58 59 -78 31
-35 32 -35 46 -15 13 19 10 30 -35 123 -122 249 -202 567 -249 987 -13 121
-17 243 -18 550 0 217 3 420 7 451 8 55 7 57 -16 63 -30 7 -38 30 -27 78 8 36
8 38 -14 32 -16 -4 -30 1 -44 15 -12 12 -22 21 -23 21 -2 -1 -18 -14 -36 -29z
m36 -123 c21 -21 14 -66 -13 -84 -23 -15 -27 -15 -50 0 -29 19 -33 56 -9 80
18 19 55 21 72 4z m-84 -861 c37 -27 13 -97 -33 -97 -22 0 -51 30 -51 53 0 25
28 57 50 57 9 0 24 -6 34 -13z m157 -947 c29 -16 25 -65 -6 -86 -23 -15 -27
-15 -50 0 -29 19 -33 56 -9 80 18 19 38 20 65 6z"/>
<path d="M4935 8043 c-4 -10 -10 -142 -12 -293 -6 -305 4 -463 42 -675 33
-177 96 -372 111 -340 3 6 80 136 173 289 l168 279 -14 46 c-24 79 -43 222
-43 322 l0 96 -197 138 c-109 76 -203 142 -209 147 -7 5 -14 2 -19 -9z"/>
<path d="M9255 7916 l-200 -142 -2 -49 c-6 -119 -25 -269 -43 -342 l-21 -80
171 -287 c94 -157 175 -284 180 -281 11 7 63 165 83 255 48 207 72 512 63 770
-7 198 -16 300 -25 299 -3 0 -96 -65 -206 -143z"/>
<path d="M6234 7527 c-72 -35 -182 -142 -281 -274 -94 -125 -189 -213 -349
-323 -92 -63 -254 -199 -313 -264 l-24 -26 1087 0 1088 0 -59 52 c-110 99
-315 303 -419 419 -133 148 -205 206 -340 274 -60 30 -140 78 -178 106 -85 65
-133 73 -212 36z"/>
<path d="M6881 7389 c-55 -22 -54 -25 67 -152 206 -215 475 -480 548 -539 l71
-58 154 0 154 0 -280 283 -280 283 -97 48 c-53 26 -127 70 -164 97 -55 41 -74
49 -108 48 -22 0 -52 -5 -65 -10z"/>
<path d="M7327 7335 c-21 -7 -40 -15 -43 -17 -2 -3 23 -21 55 -42 35 -23 144
-127 272 -259 118 -121 254 -256 304 -299 l89 -78 111 0 110 0 -255 258 c-248
251 -257 259 -350 306 -52 27 -119 66 -147 87 -42 32 -96 61 -106 59 -1 -1
-19 -7 -40 -15z"/>
<path d="M7827 7214 c-16 -8 -27 -19 -25 -25 6 -18 385 -404 467 -476 l83 -73
127 0 126 0 -100 98 c-55 53 -150 149 -210 212 -95 100 -122 121 -194 159 -47
23 -109 60 -140 82 -58 42 -89 47 -134 23z"/>
<path d="M8227 7149 c-16 -9 -14 -13 20 -40 21 -17 92 -88 158 -159 66 -71
165 -169 219 -219 l99 -91 90 0 89 0 -167 172 c-184 190 -203 206 -289 249
-32 16 -80 45 -106 64 -49 36 -81 43 -113 24z"/>
<path d="M5384 6958 c-54 -90 -105 -174 -113 -188 -9 -14 27 13 79 59 52 46
124 104 160 129 116 81 200 146 200 154 0 4 -51 8 -114 8 l-115 0 -97 -162z"/>
<path d="M8520 7116 c0 -2 18 -15 41 -30 22 -15 133 -121 247 -235 114 -114
233 -225 266 -247 l58 -39 -1993 -3 -1994 -3 -157 -264 c-87 -145 -158 -267
-158 -272 0 -4 1069 -8 2375 -8 1842 0 2374 3 2371 12 -9 22 -629 1058 -644
1076 -13 15 -37 17 -214 17 -109 0 -198 -2 -198 -4z"/>
<path d="M4721 5803 c-6 -38 -10 -104 -9 -148 3 -90 -8 -116 -95 -229 -66 -84
-68 -105 -17 -172 49 -65 134 -152 209 -214 49 -41 54 -42 48 -20 -38 133 -38
128 -17 222 32 148 146 360 170 317 5 -8 26 -76 49 -152 22 -76 53 -162 68
-190 l28 -51 5 80 c4 61 11 90 32 124 30 53 107 150 117 150 4 0 8 -15 9 -32
4 -50 49 -180 80 -229 41 -65 69 -136 82 -209 13 -74 31 -120 59 -156 34 -44
36 -118 6 -334 l-7 -45 80 -47 c88 -53 305 -168 316 -168 3 0 -18 30 -49 67
-30 37 -65 88 -76 113 -11 25 -24 52 -29 62 -12 21 6 28 75 28 l54 0 -65 103
c-35 56 -64 108 -64 115 0 26 198 -2 293 -42 21 -8 37 -14 37 -13 0 1 -9 36
-20 77 -24 93 -26 130 -4 130 23 0 159 -47 207 -72 60 -30 225 -165 248 -202
10 -17 29 -60 41 -96 11 -36 36 -94 55 -130 18 -36 33 -72 34 -80 0 -8 6 6 13
33 18 67 37 83 110 96 114 20 182 10 235 -34 45 -39 69 -100 131 -332 10 -41
12 -43 49 -43 l39 0 22 83 c45 174 72 240 109 279 51 50 104 63 208 51 94 -11
131 -31 140 -73 3 -17 9 -30 12 -30 10 0 59 104 88 185 36 100 54 125 133 186
39 30 87 66 106 81 36 27 173 81 237 93 45 9 46 3 17 -109 -12 -43 -19 -80
-16 -83 2 -2 24 2 48 10 105 36 260 58 272 38 5 -7 -48 -102 -108 -193 l-18
-28 58 0 c33 0 66 -5 74 -10 8 -5 10 -10 5 -10 -6 0 -18 -21 -27 -47 -10 -27
-35 -70 -57 -98 -22 -27 -50 -62 -61 -78 l-22 -28 56 25 c43 19 330 178 344
191 1 1 -4 44 -13 96 -18 113 -19 226 -2 255 45 77 58 111 72 181 10 53 34
116 75 198 58 119 90 207 90 252 0 13 3 23 8 23 14 -1 105 -126 130 -178 21
-47 23 -62 18 -120 l-7 -67 30 47 c18 27 49 111 77 205 26 87 49 160 51 162 2
3 15 -6 29 -20 42 -39 121 -213 141 -312 17 -83 17 -90 0 -154 -9 -36 -15 -68
-13 -70 13 -13 222 191 272 267 24 36 25 39 10 75 -9 21 -28 51 -43 69 -16 17
-44 56 -63 86 -34 52 -35 59 -36 150 0 52 -4 121 -8 153 l-8 57 -66 0 c-63 0
-69 -2 -146 -54 -601 -399 -1304 -493 -1920 -256 -42 17 -79 30 -82 30 -2 0 8
-22 22 -50 29 -56 40 -112 30 -163 -14 -76 -120 -156 -249 -190 -31 -8 -57
-14 -57 -12 0 2 13 25 30 52 59 96 59 112 9 381 -24 132 -46 239 -48 237 -2
-2 -22 -108 -46 -234 -51 -275 -49 -306 27 -413 11 -16 17 -28 14 -28 -25 0
-171 56 -208 79 -103 66 -132 172 -75 281 15 29 26 55 24 57 -2 2 -26 -6 -53
-17 -27 -12 -100 -37 -162 -56 -318 -96 -648 -109 -984 -38 -250 52 -569 187
-781 328 -96 64 -101 66 -162 66 l-63 0 -11 -67z m69 -393 c22 -41 -20 -84
-65 -67 -20 8 -30 54 -15 72 19 22 67 19 80 -5z m4910 -1 c9 -16 8 -26 -5 -45
-27 -41 -85 -27 -85 21 0 29 19 45 52 45 17 0 31 -7 38 -21z m-3528 -90 c29
-6 114 -42 188 -79 330 -165 609 -231 919 -217 269 13 518 85 796 232 57 29
129 59 161 65 126 26 259 -12 359 -102 l49 -45 -49 -7 c-45 -7 -48 -9 -27 -20
21 -11 21 -12 3 -23 -11 -7 -21 -22 -23 -33 -3 -19 -5 -19 -41 11 l-39 32
-151 -77 c-84 -42 -206 -105 -272 -139 -349 -182 -801 -239 -1233 -156 -211
41 -348 93 -579 222 -82 45 -184 98 -227 116 l-77 34 -32 -31 c-31 -30 -55
-43 -43 -23 3 5 -3 20 -14 34 -19 23 -19 25 -2 32 16 7 15 8 -3 15 -11 5 -33
9 -50 9 l-30 1 45 40 c117 103 235 138 372 109z m-395 -231 c10 -8 32 -20 48
-25 l30 -10 -39 -13 c-34 -11 -41 -10 -65 7 -32 24 -37 45 -20 86 l13 31 8
-30 c4 -17 16 -38 25 -46z m2901 2 c-4 -47 -44 -68 -90 -49 l-31 13 40 17 c41
17 53 33 53 72 1 22 1 22 16 2 8 -11 14 -35 12 -55z m-3000 -382 c28 -28 7
-78 -32 -78 -21 0 -56 27 -56 43 0 36 63 60 88 35z m3120 0 c16 -16 15 -53 -2
-68 -21 -16 -56 -9 -72 15 -27 41 39 88 74 53z"/>
<path d="M8223 5250 c-18 -11 -33 -22 -33 -25 0 -3 18 -35 41 -70 l41 -65 29
21 c63 45 71 87 26 137 -25 27 -62 28 -104 2z m89 -17 c28 -25 24 -79 -7 -99
-14 -9 -27 -15 -28 -13 -31 45 -57 91 -57 98 0 13 30 30 54 31 11 0 28 -7 38
-17z"/>
<path d="M6116 5199 c-20 -33 -36 -64 -36 -67 0 -15 68 -43 95 -40 34 4 68 46
68 84 0 20 -11 37 -34 56 -18 15 -39 28 -45 28 -6 0 -28 -27 -48 -61z m82 21
c26 -25 29 -66 5 -92 -19 -21 -60 -23 -84 -5 -15 12 -14 17 14 65 18 29 34 52
38 52 3 0 15 -9 27 -20z"/>
<path d="M6256 5121 c-38 -73 -41 -81 -27 -81 13 0 83 138 72 144 -5 3 -25
-25 -45 -63z"/>
<path d="M8108 5185 c-3 -3 -2 -27 3 -53 5 -26 11 -62 14 -79 3 -18 11 -33 16
-33 6 0 8 12 4 29 -5 25 -2 30 25 41 26 11 33 10 49 -4 11 -10 21 -14 24 -9 6
9 -105 113 -121 113 -5 0 -11 -2 -14 -5z m57 -78 c-21 -12 -35 0 -35 30 l0 26
25 -23 c22 -20 23 -25 10 -33z"/>
<path d="M8001 5131 c-30 -15 -50 -31 -45 -34 6 -3 16 -2 24 4 25 15 29 11 60
-51 17 -33 35 -60 40 -60 14 0 13 4 -21 72 -17 34 -27 64 -22 65 6 2 19 10 29
18 33 25 -6 17 -65 -14z"/>
<path d="M6312 5117 c-49 -52 -13 -137 57 -137 70 0 109 91 58 138 -32 30 -87
29 -115 -1z m100 -14 c37 -34 10 -103 -42 -103 -36 0 -60 23 -60 57 0 55 62
83 102 46z"/>
<path d="M7875 5078 c-11 -6 -22 -12 -24 -14 -7 -6 52 -144 62 -144 9 0 7 17
-8 52 -11 27 27 27 57 0 14 -13 31 -21 37 -17 7 4 0 15 -18 30 -21 19 -27 31
-23 50 8 47 -35 70 -83 43z m63 -36 c2 -16 -3 -25 -20 -31 -19 -7 -25 -5 -35
18 -8 20 -8 28 0 34 22 14 52 3 55 -21z"/>
<path d="M6480 5060 c-12 -22 -8 -33 23 -67 35 -39 -1 -74 -38 -37 -23 23 -32
8 -10 -16 32 -35 85 -20 85 24 0 11 -12 32 -26 47 -14 15 -23 32 -20 38 9 15
39 14 54 -1 6 -6 15 -8 19 -4 11 11 -26 36 -54 36 -12 0 -27 -9 -33 -20z"/>
<path d="M7783 5046 c-17 -6 -35 -14 -38 -18 -4 -3 4 -38 16 -78 25 -77 24
-77 95 -50 37 15 22 25 -17 11 -36 -12 -45 -9 -52 18 -4 15 2 22 24 30 40 14
36 25 -6 17 -20 -4 -35 -3 -35 3 0 5 -2 16 -5 24 -4 9 6 19 32 28 45 18 32 31
-14 15z"/>
<path d="M6662 4975 c-17 -66 -15 -92 10 -109 29 -21 61 -20 80 2 21 22 49
120 38 127 -11 7 -16 -2 -25 -45 -14 -71 -55 -101 -86 -64 -11 13 -10 26 2 75
11 41 12 59 4 59 -6 0 -16 -20 -23 -45z"/>
<path d="M7633 5003 c-27 -5 -28 -9 -4 -93 18 -62 20 -65 47 -62 15 2 36 8 46
13 22 12 24 52 3 69 -9 7 -13 20 -10 27 2 8 0 23 -5 34 -10 18 -29 21 -77 12z
m62 -23 c9 -15 -13 -40 -35 -40 -17 0 -34 33 -22 44 9 10 50 7 57 -4z m9 -56
c26 -10 19 -43 -10 -55 -31 -11 -30 -12 -39 23 -5 20 -3 27 12 31 10 3 19 5
20 6 1 0 8 -2 17 -5z"/>
<path d="M6827 4983 c-2 -4 -8 -30 -11 -58 -4 -27 -10 -60 -13 -72 -3 -13 0
-23 5 -23 6 0 16 26 23 58 l12 57 30 -67 c16 -38 35 -68 42 -68 7 0 17 28 24
69 13 84 14 91 2 91 -5 0 -12 -19 -16 -42 -13 -84 -16 -86 -42 -22 -26 62 -47
92 -56 77z"/>
<path d="M7561 4963 c2 -51 24 -126 38 -131 9 -3 12 0 8 11 -3 8 -11 43 -18
76 -12 65 -30 92 -28 44z"/>
<path d="M7450 4959 c0 -5 5 -41 11 -80 13 -74 14 -75 78 -63 41 9 30 24 -13
17 l-34 -5 -12 71 c-6 39 -16 71 -21 71 -5 0 -9 -5 -9 -11z"/>
<path d="M6975 4884 c-6 -68 -3 -95 9 -83 11 10 18 159 9 159 -6 0 -14 -34
-18 -76z"/>
<path d="M7043 4924 c-21 -21 -24 -32 -19 -62 11 -74 92 -98 140 -41 30 35 32
49 11 88 -25 50 -90 57 -132 15z m105 -6 c17 -17 15 -74 -4 -92 -35 -35 -104
-6 -104 44 0 9 7 26 16 38 17 25 71 31 92 10z"/>
<path d="M7210 4870 c0 -62 3 -80 14 -80 11 0 13 13 9 63 -6 69 -5 69 51 -10
21 -29 42 -53 47 -53 5 0 9 36 9 80 0 47 -4 80 -10 80 -6 0 -10 -27 -10 -62
l0 -62 -46 62 c-25 34 -50 62 -55 62 -5 0 -9 -36 -9 -80z"/>
<path d="M5650 5850 c83 -63 277 -143 430 -176 118 -26 398 -26 525 0 49 9 93
20 98 23 5 3 -20 15 -55 27 -75 27 -177 78 -235 117 l-42 29 -373 0 c-369 0
-373 -1 -348 -20z"/>
<path d="M7947 5815 c-49 -30 -124 -67 -168 -82 -43 -15 -79 -31 -79 -34 0
-12 200 -41 320 -46 152 -7 308 14 442 58 92 30 279 121 299 146 10 11 -52 13
-357 12 l-369 0 -88 -54z"/>
<path d="M6817 4387 c-29 -76 -14 -195 36 -278 l32 -54 82 -17 c45 -9 91 -22
103 -28 12 -6 24 -10 26 -7 5 5 -204 320 -243 366 -25 29 -31 32 -36 18z"/>
<path d="M7550 4349 c-67 -85 -239 -349 -227 -349 3 0 20 6 39 14 19 8 64 20
101 26 59 11 68 15 89 48 43 66 61 123 60 197 0 39 -4 81 -9 94 -10 24 -11 23
-53 -30z"/>
</g>
</svg>
